<svg width="20" height="20" viewBox="0 0 20 20" fill="none" xmlns="http://www.w3.org/2000/svg">
<path fill-rule="evenodd" clip-rule="evenodd" d="M7.91635 11.6167L8.02604 11.7222C9.91489 13.4804 11.4956 14.3062 12.7683 14.1994L13.1351 13.8704C13.6567 13.4141 14.05 13.1248 14.315 13.0026C14.8668 12.7482 15.2539 12.7532 16.2996 13.2972C17.6752 14.0129 18.625 14.8447 19.1103 15.3113C19.561 15.7447 19.421 16.4911 19.2627 16.8223L19.1579 17.007C18.8763 17.4774 17.855 19.0292 15.8978 19.2947C15.154 19.3956 14.215 19.3031 13.1141 18.9843C10.7558 18.1993 8.40734 16.7605 6.0687 14.668L5.65279 14.2881L5.64887 14.2919L5.44815 14.0955L5.2437 13.9023L5.24763 13.8986L4.85252 13.4987C2.67617 11.2501 1.17978 8.9921 0.363326 6.72464C0.0317449 5.66612 -0.0644686 4.76333 0.0404725 4.04816C0.336148 2.03316 2.16575 1.04995 2.50596 0.866771L2.54052 0.848024C2.83499 0.684753 3.69808 0.49273 4.18342 0.959377L4.41322 1.1866C4.91349 1.6953 5.64026 2.5282 6.27823 3.66187C6.84401 4.66725 6.84929 5.03951 6.58468 5.56998C6.42933 5.88143 6.01441 6.37714 5.3399 7.05712C5.22885 8.28077 6.08767 9.80064 7.91635 11.6167Z" fill="#FF5C00"/>
</svg>
