<svg width="13" height="14" viewBox="0 0 13 14" fill="none" xmlns="http://www.w3.org/2000/svg">
<path d="M6.40345 13.6643C9.90024 13.6643 12.8069 10.7577 12.8069 7.26087C12.8069 3.75781 9.89397 0.857422 6.39718 0.857422C2.89409 0.857422 0 3.75781 0 7.26087C0 10.7577 2.90038 13.6643 6.40345 13.6643ZM4.85282 10.9899C4.40708 10.9899 4.14967 10.7451 4.13084 10.2994L3.89855 5.17659H3.52189C3.35239 5.17659 3.20799 5.03222 3.20799 4.86272C3.20799 4.68692 3.35239 4.54881 3.52189 4.54881H4.94697V4.04031C4.94697 3.55062 5.26714 3.24301 5.73172 3.24301H7.04379C7.50836 3.24301 7.82853 3.55062 7.82853 4.04031V4.54881H9.25361C9.42311 4.54881 9.56124 4.68692 9.56124 4.86272C9.56124 5.03222 9.42311 5.17659 9.25361 5.17659H8.88951L8.65723 10.2994C8.6321 10.7451 8.37472 10.9899 7.92898 10.9899H4.85282ZM5.58105 4.54881H7.19446V4.15959C7.19446 3.99009 7.07518 3.87708 6.89939 3.87708H5.86982C5.70032 3.87708 5.58105 3.99009 5.58105 4.15959V4.54881ZM5.23575 10.2994C5.39272 10.2994 5.48687 10.1926 5.4806 10.042L5.32993 5.83579C5.31737 5.68512 5.22319 5.58467 5.07881 5.58467C4.92188 5.58467 4.8214 5.69139 4.8277 5.83579L4.9972 10.0482C5.00347 10.1989 5.09764 10.2994 5.23575 10.2994ZM6.39088 10.2931C6.54785 10.2931 6.6483 10.1926 6.6483 10.042V5.83579C6.6483 5.69139 6.54785 5.58467 6.39088 5.58467C6.23395 5.58467 6.1335 5.69139 6.1335 5.83579V10.042C6.1335 10.1926 6.24022 10.2931 6.39088 10.2931ZM7.55231 10.2994C7.69042 10.2994 7.7846 10.1989 7.79087 10.0482L7.96037 5.83579C7.96664 5.69139 7.85992 5.58467 7.70296 5.58467C7.56485 5.58467 7.46443 5.68512 7.45814 5.83579L7.30747 10.042C7.30117 10.1926 7.39535 10.2994 7.55231 10.2994Z" fill="#FF5C00"/>
</svg>
