<svg width="40" height="39" viewBox="0 0 40 39" fill="none" xmlns="http://www.w3.org/2000/svg">
<path d="M39.6549 19.3499C39.6549 29.1225 32.413 37.2017 23.0052 38.5128C22.1255 38.6348 21.2255 38.6985 20.312 38.6985C19.2575 38.6985 18.222 38.6145 17.2136 38.4518C8.00229 36.9685 0.967773 28.9802 0.967773 19.3499C0.967773 8.66354 9.62877 0 20.3107 0C30.9925 0 39.6549 8.66354 39.6549 19.3499Z" fill="#1877F2"/>
<path d="M23.005 15.5359V19.751H28.2178L27.3924 25.4291H23.005V38.5112C22.1253 38.6332 21.2253 38.697 20.3118 38.697C19.2573 38.697 18.2218 38.6129 17.2134 38.4502V25.4291H12.4058V19.751H17.2134V14.5936C17.2134 11.3939 19.8062 8.79892 23.0063 8.79892V8.80163C23.0158 8.80163 23.0239 8.79892 23.0334 8.79892H28.2192V13.7096H24.8307C23.8236 13.7096 23.0063 14.5272 23.0063 15.5345L23.005 15.5359Z" fill="white"/>
</svg>
