<svg width="22" height="22" viewBox="0 0 22 22" fill="none" xmlns="http://www.w3.org/2000/svg">
<g filter="url(#filter0_d_1_271)">
<path d="M10.857 0.571426C9.61381 0.571426 8.39853 0.940077 7.36485 1.63076C6.33117 2.32144 5.52551 3.30314 5.04976 4.4517C4.57401 5.60026 4.44953 6.86411 4.69207 8.08342C4.93461 9.30273 5.53326 10.4227 6.41233 11.3018C7.29141 12.1809 8.41141 12.7795 9.63072 13.0221C10.85 13.2646 12.1139 13.1401 13.2624 12.6644C14.411 12.1886 15.3927 11.383 16.0834 10.3493C16.7741 9.31561 17.1427 8.10034 17.1427 6.85714C17.1427 6.03169 16.9801 5.21432 16.6642 4.4517C16.3484 3.68908 15.8854 2.99615 15.3017 2.41247C14.718 1.82879 14.0251 1.36578 13.2624 1.0499C12.4998 0.734011 11.6825 0.571426 10.857 0.571426ZM11.4856 10C11.4856 10.1667 11.4194 10.3266 11.3015 10.4445C11.1836 10.5623 11.0237 10.6286 10.857 10.6286C10.6903 10.6286 10.5304 10.5623 10.4125 10.4445C10.2947 10.3266 10.2284 10.1667 10.2284 10V6.22857C10.2284 6.06186 10.2947 5.90198 10.4125 5.7841C10.5304 5.66622 10.6903 5.6 10.857 5.6C11.0237 5.6 11.1836 5.66622 11.3015 5.7841C11.4194 5.90198 11.4856 6.06186 11.4856 6.22857V10ZM10.857 4.34285C10.6705 4.34285 10.4882 4.28756 10.3332 4.18395C10.1781 4.08035 10.0573 3.9331 9.98592 3.76081C9.91456 3.58853 9.89588 3.39895 9.93226 3.21605C9.96864 3.03316 10.0584 2.86516 10.1903 2.7333C10.3222 2.60144 10.4902 2.51164 10.6731 2.47526C10.856 2.43888 11.0455 2.45755 11.2178 2.52891C11.3901 2.60027 11.5374 2.72112 11.641 2.87617C11.7446 3.03123 11.7999 3.21352 11.7999 3.4C11.7999 3.65006 11.7005 3.88988 11.5237 4.0667C11.3469 4.24352 11.1071 4.34285 10.857 4.34285Z" fill="#FF5C00"/>
</g>
<defs>
<filter id="filter0_d_1_271" x="0.571289" y="0.571426" width="20.5713" height="20.5714" filterUnits="userSpaceOnUse" color-interpolation-filters="sRGB">
<feFlood flood-opacity="0" result="BackgroundImageFix"/>
<feColorMatrix in="SourceAlpha" type="matrix" values="0 0 0 0 0 0 0 0 0 0 0 0 0 0 0 0 0 0 127 0" result="hardAlpha"/>
<feOffset dy="4"/>
<feGaussianBlur stdDeviation="2"/>
<feComposite in2="hardAlpha" operator="out"/>
<feColorMatrix type="matrix" values="0 0 0 0 0 0 0 0 0 0 0 0 0 0 0 0 0 0 0.25 0"/>
<feBlend mode="normal" in2="BackgroundImageFix" result="effect1_dropShadow_1_271"/>
<feBlend mode="normal" in="SourceGraphic" in2="effect1_dropShadow_1_271" result="shape"/>
</filter>
</defs>
</svg>
