<svg width="37" height="37" viewBox="0 0 37 37" fill="none" xmlns="http://www.w3.org/2000/svg">
<path d="M18.7709 0.326904H18.6881C8.67722 0.326904 0.561768 8.44475 0.561768 18.4586V18.5414C0.561768 28.5552 8.67722 36.6731 18.6881 36.6731H18.7709C28.7818 36.6731 36.8973 28.5552 36.8973 18.5414V18.4586C36.8973 8.44475 28.7818 0.326904 18.7709 0.326904Z" fill="black"/>
<path d="M27.9412 14.7616V18.1933C27.3417 18.1348 26.5626 17.9985 25.7008 17.6827C24.5754 17.2701 23.7378 16.706 23.1891 16.2693V23.2054L23.1751 23.1837C23.184 23.3213 23.1891 23.4613 23.1891 23.6027C23.1891 27.0472 20.3872 29.8512 16.9425 29.8512C13.4977 29.8512 10.6958 27.0472 10.6958 23.6027C10.6958 20.1582 13.4977 17.3529 16.9425 17.3529C17.2798 17.3529 17.6108 17.3797 17.9341 17.4319V20.814C17.6235 20.7032 17.29 20.6433 16.9425 20.6433C15.3117 20.6433 13.984 21.9702 13.984 23.6027C13.984 25.2352 15.3117 26.562 16.9425 26.562C18.5732 26.562 19.9009 25.2339 19.9009 23.6027C19.9009 23.5416 19.8997 23.4804 19.8958 23.4193V9.94055H23.324C23.3368 10.2309 23.3482 10.5238 23.361 10.8141C23.3839 11.3858 23.5876 11.9347 23.9427 12.3842C24.359 12.9126 24.9739 13.5264 25.837 14.0167C26.6453 14.4751 27.404 14.6712 27.9412 14.7641V14.7616Z" fill="#FF004F"/>
<path d="M26.7625 11.9758V15.4076C26.1629 15.349 25.3839 15.2128 24.522 14.897C23.3967 14.4844 22.5591 13.9203 22.0104 13.4835V20.4196L21.9964 20.398C22.0053 20.5355 22.0104 20.6756 22.0104 20.8169C22.0104 24.2614 19.2085 27.0654 15.7637 27.0654C12.319 27.0654 9.51709 24.2614 9.51709 20.8169C9.51709 17.3724 12.319 14.5672 15.7637 14.5672C16.1011 14.5672 16.4321 14.5939 16.7554 14.6461V18.0282C16.4448 17.9174 16.1113 17.8576 15.7637 17.8576C14.133 17.8576 12.8053 19.1845 12.8053 20.8169C12.8053 22.4494 14.133 23.7763 15.7637 23.7763C17.3945 23.7763 18.7222 22.4481 18.7222 20.8169C18.7222 20.7558 18.7209 20.6947 18.7171 20.6336V7.15225H22.1453C22.1581 7.44258 22.1695 7.73546 22.1822 8.02579C22.2052 8.59754 22.4088 9.14637 22.764 9.59588C23.1803 10.1243 23.7952 10.7381 24.6583 11.2284C25.4666 11.6855 26.2253 11.8829 26.7625 11.9758Z" fill="#00F7EF"/>
<path d="M27.5123 13.4751V16.9068C26.9127 16.8482 26.1336 16.712 25.2718 16.3962C24.1465 15.9836 23.3088 15.4195 22.7602 14.9827V21.9189L22.7462 21.8972C22.7551 22.0347 22.7602 22.1748 22.7602 22.3162C22.7602 25.7607 19.9583 28.5646 16.5135 28.5646C13.0687 28.5646 10.2668 25.7607 10.2668 22.3162C10.2668 18.8717 13.0687 16.0664 16.5135 16.0664C16.8508 16.0664 17.1818 16.0931 17.5052 16.1453V19.5274C17.1946 19.4167 16.861 19.3568 16.5135 19.3568C14.8828 19.3568 13.555 20.6837 13.555 22.3162C13.555 23.9486 14.8828 25.2755 16.5135 25.2755C18.1442 25.2755 19.472 23.9474 19.472 22.3162C19.472 22.255 19.4707 22.1939 19.4669 22.1328V8.65402H22.8951C22.9078 8.94435 22.9193 9.23723 22.932 9.52756C22.9549 10.0993 23.1586 10.6481 23.5138 11.0976C23.93 11.6261 24.5449 12.2399 25.408 12.7301C26.2164 13.1873 26.9751 13.3846 27.5123 13.4776V13.4751Z" fill="white"/>
</svg>
