<svg width="35" height="35" viewBox="0 0 35 35" fill="none" xmlns="http://www.w3.org/2000/svg">
<path d="M34.514 17.5C34.514 26.928 26.8734 34.5709 17.4482 34.5709C8.02296 34.5709 0.382324 26.928 0.382324 17.5C0.382324 8.07203 8.02296 0.429142 17.4482 0.429142C26.8734 0.429142 34.514 8.07203 34.514 17.5Z" fill="#FF0209"/>
<path d="M24.6927 9.93837C24.1842 9.88319 23.6638 9.8736 23.1649 9.8748C19.2735 9.8784 15.3821 9.882 11.4919 9.8844C10.2675 9.8844 8.93398 9.92398 7.98781 10.7025C6.92172 11.5818 6.69987 13.1064 6.61353 14.4859C6.49361 16.3764 6.48402 18.2729 6.58235 20.1646C6.63631 21.2034 6.73105 22.2674 7.17835 23.2078C7.49974 23.8832 8.03578 24.4902 8.72172 24.8093C9.51919 25.1799 10.3538 25.1139 11.2125 25.1151C13.2679 25.1175 15.3233 25.1187 17.3788 25.1211C19.5157 25.1235 21.6539 25.1247 23.7909 25.1271C24.8006 25.1271 25.8847 25.1067 26.7086 24.5226C27.7723 23.7692 28.0612 22.3358 28.1944 21.0391C28.4402 18.6507 28.4438 16.2372 28.204 13.8489C28.1044 12.8641 27.9389 11.8229 27.2902 11.0756C26.6474 10.3342 25.694 10.0487 24.6939 9.93957L24.6927 9.93837Z" fill="white"/>
<path d="M20.9285 17.4986L15.1292 20.8477V14.1494L20.9285 17.4986Z" fill="#FF0209"/>
</svg>
